<svg width="44" height="44" viewBox="0 0 44 44" fill="none" xmlns="http://www.w3.org/2000/svg">
<rect width="44" height="44" rx="22" fill="#0EAD9D"/>
<path d="M21.9999 12.2222C23.2966 12.2222 24.5401 12.7372 25.4569 13.6541C26.3738 14.5709 26.8888 15.8144 26.8888 17.1111C26.8888 18.4077 26.3738 19.6512 25.4569 20.568C24.5401 21.4849 23.2966 21.9999 21.9999 21.9999C20.7033 21.9999 19.4598 21.4849 18.543 20.568C17.6261 19.6512 17.1111 18.4077 17.1111 17.1111C17.1111 15.8144 17.6261 14.5709 18.543 13.6541C19.4598 12.7372 20.7033 12.2222 21.9999 12.2222ZM21.9999 24.4444C27.4022 24.4444 31.7777 26.6322 31.7777 29.3333V31.7777H12.2222V29.3333C12.2222 26.6322 16.5977 24.4444 21.9999 24.4444Z" fill="white"/>
</svg>
